# xmcd CD database file
#
# Track frame offsets:
#	151
#	9045
#	27153
#	52817
#	72039
#	104575
#	138649
#	145754
#	157610
#	169239
#	177908
#	205444
#	222698
#	238993
#	259110
#
# Disc length: 3841 seconds
#
# Revision: 0
# Processed by: cddbd v1.5.2PL0 Copyright (c) Steve Scherf et al.
# Submitted via: CDex 1.51
#
DISCID=d30eff0f
DTITLE=UNLV Wind Orchestra - Spiritual Planet
DYEAR=2005
DGENRE=Wind Band
TTITLE0=Sergei Rachmaninov - Etude Tableau
TTITLE1=Wataru Hokoyama - Spiritual Planet I.Sphere in Chaos
TTITLE2=Wataru Hokoyama - Spiritual Planet II. Lost Souls
TTITLE3=Wataru Hokoyama - Spiritual Planet III. Enlightenment
TTITLE4=Paul Seitz - Sealmiut - The Sky Dwellers
TTITLE5=Nathan Tanouye - Kokopelli's Dance
TTITLE6=Richard de la Riva - Realms I. The Gate
TTITLE7=Richard de la Riva - Realms II. The Creatures of the Mountains
TTITLE8=Richard de la Riva - Realms III. The Ferrets
TTITLE9=Richard de la Riva - Realms IV. The Lamp Headed Creatures
TTITLE10=Roger Nixon - Las Vegas Holiday
TTITLE11=Benjamin Britten - King Arthur Suite I. Overture
TTITLE12=Benjamin Britten - King Arthur Suite II. Scherzo
TTITLE13=Benjamin Britten - King Arthur Suite III. Variations
TTITLE14=Benjamin Britten - King Arthur Suite IV. Finale
EXTD=YEAR: 2005
EXTT0=
EXTT1=
EXTT2=
EXTT3=
EXTT4=
EXTT5=
EXTT6=
EXTT7=
EXTT8=
EXTT9=
EXTT10=
EXTT11=
EXTT12=
EXTT13=
EXTT14=
PLAYORDER=
